HIERARCHY
ROOT Pelvis
{
	OFFSET 0.000000 0.000000 0.000000
	CHANNELS 6 Xposition Yposition Zposition Xrotation Yrotation Zrotation
	JOINT LeftUpLeg_virtual
	{
		OFFSET 0.000000 0.000000 0.000000
		CHANNELS 3 Xrotation Yrotation Zrotation
		JOINT LeftUpLeg
		{
			OFFSET 18.735201 -5.666702 -4.541200
			CHANNELS 3 Xrotation Yrotation Zrotation
			JOINT LeftLeg
			{
				OFFSET -0.021200 -31.938179 0.493100
				CHANNELS 3 Xrotation Yrotation Zrotation
				JOINT LeftFoot
				{
					OFFSET 0.021200 -31.938179 -4.336299
					CHANNELS 3 Xrotation Yrotation Zrotation
					JOINT LeftToeBase
					{
						OFFSET 0.943001 -26.722000 15.023500
						CHANNELS 3 Xrotation Yrotation Zrotation
						End Site
						{
							OFFSET 0 0 0
						}
					}
				}
			}
		}
	}
	JOINT RightUpLeg_virtual
	{
		OFFSET 0.000000 0.000000 0.000000
		CHANNELS 3 Xrotation Yrotation Zrotation
		JOINT RightUpLeg
		{
			OFFSET -18.735201 -5.666702 -4.541200
			CHANNELS 3 Xrotation Yrotation Zrotation
			JOINT RightLeg
			{
				OFFSET 0.018946 -31.938133 0.493100
				CHANNELS 3 Xrotation Yrotation Zrotation
				JOINT RightFoot
				{
					OFFSET -0.018946 -31.938126 -4.336299
					CHANNELS 3 Xrotation Yrotation Zrotation
					JOINT RightToeBase
					{
						OFFSET -0.943001 -26.722004 15.023500
						CHANNELS 3 Xrotation Yrotation Zrotation
						End Site
						{
							OFFSET 0 0 0
						}
					}
				}
			}
		}
	}
	JOINT Hips_virtual
	{
		OFFSET 0.000000 0.000000 0.000000
		CHANNELS 3 Xrotation Yrotation Zrotation
		JOINT Hips
		{
			OFFSET -0.000000 -0.000000 -0.000000
			CHANNELS 3 Xrotation Yrotation Zrotation
			JOINT Spine
			{
				OFFSET 0.000000 10.199997 -0.299500
				CHANNELS 3 Xrotation Yrotation Zrotation
				JOINT Spine1
				{
					OFFSET 0.000000 11.900002 -1.516600
					CHANNELS 3 Xrotation Yrotation Zrotation
					JOINT Spine2
					{
						OFFSET 0.000000 13.600006 -2.842500
						CHANNELS 3 Xrotation Yrotation Zrotation
						JOINT Neck_virtual
						{
							OFFSET 0.000000 0.000000 0.000000
							CHANNELS 3 Xrotation Yrotation Zrotation
							JOINT Neck
							{
								OFFSET 0.000000 9.624100 -2.890100
								CHANNELS 3 Xrotation Yrotation Zrotation
								JOINT Head
								{
									OFFSET 0.000000 14.068802 -1.351900
									CHANNELS 3 Xrotation Yrotation Zrotation
									End Site
									{
										OFFSET 0 0 0
									}
								}
							}
						}
						JOINT LeftShoulder_virtual
						{
							OFFSET 0.000000 0.000000 0.000000
							CHANNELS 3 Xrotation Yrotation Zrotation
							JOINT LeftShoulder
							{
								OFFSET 15.263000 10.923401 -0.547700
								CHANNELS 3 Xrotation Yrotation Zrotation
								JOINT LeftArm
								{
									OFFSET 25.438599 -2.830597 -13.032500
									CHANNELS 3 Xrotation Yrotation Zrotation
									JOINT LeftForeArm
									{
										OFFSET 29.960503 0.000000 0.000000
										CHANNELS 3 Xrotation Yrotation Zrotation
										JOINT LeftHand
										{
											OFFSET 27.849251 0.000000 0.000000
											CHANNELS 3 Xrotation Yrotation Zrotation
											End Site
											{
												OFFSET 0 0 0
											}
										}
									}
								}
							}
						}
						JOINT RightShoulder_virtual
						{
							OFFSET 0.000000 0.000000 0.000000
							CHANNELS 3 Xrotation Yrotation Zrotation
							JOINT RightShoulder
							{
								OFFSET -15.263000 10.923401 -0.547700
								CHANNELS 3 Xrotation Yrotation Zrotation
								JOINT RightArm
								{
									OFFSET -25.438599 -2.830597 -13.032500
									CHANNELS 3 Xrotation Yrotation Zrotation
									JOINT RightForeArm
									{
										OFFSET -29.960503 0.000000 0.000000
										CHANNELS 3 Xrotation Yrotation Zrotation
										JOINT RightHand
										{
											OFFSET -27.849251 0.000000 0.000000
											CHANNELS 3 Xrotation Yrotation Zrotation
											End Site
											{
												OFFSET 0 0 0
											}
										}
									}
								}
							}
						}
					}
				}
			}
		}
	}
}
MOTION
Frames: 11
Frame Time: 0.03333333
-2.609165 89.554657 3.884800 0.000000 0.000000 0.000000 5.044402 -14.113915 9.112836 -31.665956 -7.647204 -13.838505 4.349350 -5.124872 -6.452493 23.570780 -26.783943 6.151524 0.000000 0.000000 0.000000 5.044402 -14.113915 9.112836 -0.711439 -14.897852 -13.458847 38.462540 6.285741 -5.754473 -12.633863 -1.306565 9.831151 0.000000 0.000000 0.000000 5.044402 -14.113915 9.112836 0.000000 -0.000001 0.000001 1.692740 4.765784 1.617633 5.177708 9.319221 2.133655 0.000000 0.000000 0.000000 5.034877 9.321734 2.400953 -0.568285 -0.443309 -0.506789 0.000000 0.000000 0.000000 5.034877 9.321734 2.400953 0.683995 -0.873511 -14.226768 -18.744839 -25.288451 -72.307743 0.000002 -68.920700 -0.000001 0.000000 0.000000 0.000000 5.034877 9.321734 2.400953 -0.133326 13.109080 18.148137 -38.704968 64.841417 69.860302 0.000006 37.971446 -0.000005 0.000000 0.000000 0.000000 
-2.559477 89.584816 3.836937 0.000000 0.000000 0.000000 5.151856 -14.242503 8.789766 -32.074346 -7.207784 -13.589860 5.169050 -5.554004 -6.324514 23.283319 -26.771027 6.182833 0.000000 0.000000 0.000000 5.151856 -14.242503 8.789766 0.364709 -15.113445 -12.971294 36.963136 6.555314 -5.455399 -13.372285 -1.300410 9.449766 0.000000 0.000000 0.000000 5.151856 -14.242503 8.789766 0.000000 -0.000001 0.000000 1.819988 4.952533 1.635954 5.142800 9.248735 2.093728 0.000000 0.000000 0.000000 5.009902 9.249994 2.349702 -0.676563 -0.484679 -0.489894 0.000000 0.000000 0.000000 5.009902 9.249994 2.349702 0.679173 -0.891283 -14.251471 -19.028045 -25.737567 -72.345992 0.000092 -69.038712 0.000100 0.000000 0.000000 0.000000 5.009902 9.249994 2.349702 -0.114677 13.054871 18.076912 -38.651801 64.286355 69.702818 -0.000012 39.069686 0.000015 0.000000 0.000000 0.000000 
-2.516632 89.589607 3.788383 0.000000 0.000000 0.000000 5.271749 -14.372079 8.439587 -32.730519 -6.785669 -13.317575 6.431337 -5.920551 -6.221844 22.787497 -26.777987 6.251635 0.000000 0.000000 0.000000 5.271749 -14.372079 8.439587 1.540518 -15.318687 -12.426617 35.335045 6.904856 -5.118350 -14.129456 -1.357586 9.019540 0.000000 0.000000 0.000000 5.271749 -14.372079 8.439587 0.000000 0.000000 0.000000 1.938847 5.164732 1.707406 5.104402 9.188401 2.061217 0.000000 0.000000 0.000000 4.981968 9.188253 2.305713 -0.791920 -0.528773 -0.478971 0.000000 0.000000 0.000000 4.981968 9.188253 2.305713 0.673632 -0.911968 -14.273172 -19.350580 -26.206748 -72.409718 -0.000049 -69.140229 -0.000052 0.000000 0.000000 0.000000 4.981968 9.188253 2.305713 -0.094519 12.998461 17.993314 -38.614918 63.703665 69.559316 -0.000033 40.235869 0.000031 0.000000 0.000000 0.000000 
-2.478179 89.576836 3.743084 0.000000 0.000000 0.000000 5.395689 -14.505442 8.072506 -33.525406 -6.406707 -13.037099 7.938531 -6.217790 -6.119121 22.159628 -26.801136 6.334540 0.000000 0.000000 0.000000 5.395689 -14.505442 8.072506 2.796353 -15.546578 -11.823221 33.575038 7.301687 -4.820459 -14.851193 -1.437649 8.597799 0.000000 0.000000 0.000000 5.395689 -14.505442 8.072506 0.000000 0.000001 0.000000 2.050876 5.395382 1.818190 5.063473 9.135447 2.034100 0.000000 0.000000 0.000000 4.951895 9.133788 2.266977 -0.911015 -0.574321 -0.471854 0.000000 0.000000 0.000000 4.951895 9.133788 2.266977 0.667689 -0.934398 -14.290968 -19.695974 -26.670562 -72.497349 0.000011 -69.220880 0.000005 0.000000 0.000000 0.000000 4.951895 9.133788 2.266977 -0.073976 12.942806 17.902076 -38.594192 63.124560 69.435505 0.000007 41.407373 -0.000011 0.000000 0.000000 0.000000 
-2.440547 89.560898 3.702187 0.000000 0.000000 0.000000 5.515024 -14.643482 7.703454 -34.299021 -6.102032 -12.759919 9.386428 -6.440121 -6.012352 21.560027 -26.827508 6.424735 0.000000 0.000000 0.000000 5.515024 -14.643482 7.703454 4.101857 -15.774237 -11.198430 31.694164 7.691026 -4.549407 -15.465568 -1.497274 8.215642 0.000000 0.000000 0.000000 5.515024 -14.643482 7.703454 0.000000 -0.000002 0.000000 2.158343 5.635421 1.949781 5.020957 9.087106 2.010358 0.000000 0.000000 0.000000 4.920474 9.083867 2.231555 -1.030692 -0.620084 -0.465726 0.000000 0.000000 0.000000 4.920474 9.083867 2.231555 0.661361 -0.958356 -14.306928 -20.065417 -27.141027 -72.605006 0.000006 -69.291361 0.000009 0.000000 0.000000 0.000000 4.920474 9.083867 2.231555 -0.052846 12.886445 17.804258 -38.583807 62.534275 69.320901 0.000003 42.608557 0.000001 0.000000 0.000000 0.000000 
-2.401735 89.545151 3.669941 0.000000 0.000000 0.000000 5.621554 -14.789926 7.340678 -35.030353 -5.903944 -12.484528 10.741165 -6.551272 -5.921098 21.000110 -26.857680 6.521512 0.000000 0.000000 0.000000 5.621554 -14.789926 7.340678 5.388684 -15.983228 -10.601768 29.779693 8.029902 -4.284708 -15.924011 -1.493505 7.894976 0.000000 0.000000 0.000000 5.621554 -14.789926 7.340678 0.000000 0.000000 0.000000 2.263130 5.879060 2.090301 4.977791 9.040610 1.987974 0.000000 0.000000 0.000000 4.888484 9.035756 2.197457 -1.147456 -0.664717 -0.456083 0.000000 0.000000 0.000000 4.888484 9.035756 2.197457 0.654905 -0.982808 -14.322215 -20.448190 -27.615085 -72.725272 0.000010 -69.359615 0.000005 0.000000 0.000000 0.000000 4.888484 9.035756 2.197457 -0.031614 12.829809 17.704282 -38.579620 61.936852 69.209883 -0.000006 43.824720 0.000008 0.000000 0.000000 0.000000 
-2.360037 89.529320 3.651493 0.000000 0.000000 0.000000 5.707178 -14.949150 6.990293 -35.709448 -5.731502 -12.250252 12.048858 -6.621005 -5.759794 20.432904 -26.902519 6.580603 0.000000 0.000000 0.000000 5.707178 -14.949150 6.990293 6.566626 -16.191496 -10.123379 27.953722 8.314665 -3.954890 -16.205712 -1.379090 7.625507 0.000000 0.000000 0.000000 5.707178 -14.949150 6.990293 0.000001 -0.000001 0.000000 2.367125 6.121345 2.229970 4.934891 8.993188 1.964918 0.000000 0.000000 0.000000 4.856682 8.986730 2.162705 -1.258221 -0.706954 -0.439998 0.000000 0.000000 0.000000 4.856682 8.986730 2.162705 0.648560 -1.006746 -14.337682 -20.832246 -28.085818 -72.851351 -0.000005 -69.430662 -0.000008 0.000000 0.000000 0.000000 4.856682 8.986730 2.162705 -0.010804 12.773285 17.606539 -38.577578 61.342086 69.098879 0.000014 45.033281 -0.000007 0.000000 0.000000 0.000000 
-2.312922 89.516518 3.651508 0.000000 0.000000 0.000000 5.763780 -15.125510 6.658509 -36.295547 -5.545952 -12.015269 13.259688 -6.687689 -5.604856 19.897019 -26.950675 6.642201 0.000000 0.000000 0.000000 5.763780 -15.125510 6.658509 7.572537 -16.410670 -9.807786 26.313266 8.483950 -3.553055 -16.304087 -1.125463 7.448361 0.000000 0.000000 0.000000 5.763780 -15.125510 6.658509 0.000000 0.000001 0.000000 2.472464 6.357396 2.358872 4.893162 8.942068 1.939192 0.000000 0.000000 0.000000 4.825827 8.934056 2.125354 -1.359351 -0.745299 -0.413273 0.000000 0.000000 0.000000 4.825827 8.934056 2.125354 0.642472 -1.029483 -14.355463 -21.206190 -28.548861 -72.975107 0.000007 -69.511238 0.000022 0.000000 0.000000 0.000000 4.825827 8.934056 2.125354 0.009263 12.716341 17.514237 -38.572322 60.758098 68.982103 0.000022 46.219812 -0.000020 0.000000 0.000000 0.000000 
-2.259187 89.511246 3.670368 0.000000 0.000000 0.000000 5.791128 -15.318552 6.346596 -36.792139 -5.506554 -11.740308 14.306113 -6.602455 -5.602064 19.452283 -26.983769 6.774398 0.000000 0.000000 0.000000 5.791128 -15.318552 6.346596 8.360292 -16.617478 -9.653053 24.932267 8.400955 -3.109909 -16.217873 -0.717057 7.438933 0.000000 0.000000 0.000000 5.791128 -15.318552 6.346596 0.000000 0.000000 0.000000 2.581566 6.582230 2.466189 4.853497 8.884473 1.908770 0.000000 0.000000 0.000000 4.796639 8.874986 2.083433 -1.447652 -0.778403 -0.372608 0.000000 0.000000 0.000000 4.796639 8.874986 2.083433 0.636802 -1.050257 -14.378240 -21.556967 -29.000952 -73.085346 0.000027 -69.610406 0.000034 0.000000 0.000000 0.000000 4.796639 8.874986 2.083433 0.028250 12.659526 17.430335 -38.559655 60.190373 68.853778 0.000005 47.370210 0.000014 0.000000 0.000000 0.000000 
-2.203916 89.506058 3.690823 0.000000 0.000000 0.000000 5.822168 -15.509440 6.032701 -37.287768 -5.598321 -11.405580 15.276466 -6.407566 -5.741562 19.068090 -27.005998 6.960362 0.000000 0.000000 0.000000 5.822168 -15.509440 6.032701 8.739803 -16.932421 -9.659978 24.009268 7.700588 -2.714973 -15.959097 0.239493 7.754380 0.000000 0.000000 0.000000 5.822168 -15.509440 6.032701 0.000000 0.000001 0.000000 2.697108 6.791593 2.540513 4.816766 8.817636 1.871636 0.000000 0.000000 0.000000 4.769850 8.806796 2.034972 -1.519671 -0.804850 -0.314436 0.000000 0.000000 0.000000 4.769850 8.806796 2.034972 0.631868 -1.067833 -14.405166 -21.873833 -29.439953 -73.172527 0.000021 -69.734606 0.000028 0.000000 0.000000 0.000000 4.769850 8.806796 2.034972 0.045562 12.606163 17.359201 -38.542515 59.637974 68.715535 -0.000017 48.465352 0.000022 0.000000 0.000000 0.000000 
-2.145962 89.502235 3.724617 0.000000 0.000000 0.000000 5.839819 -15.707383 5.730209 -37.728145 -5.694535 -11.054668 16.182048 -6.207918 -5.948408 18.722856 -27.021997 7.190746 0.000000 0.000000 0.000000 5.839819 -15.707383 5.730209 8.471978 -17.150281 -9.727444 24.014583 6.636737 -2.637074 -15.521193 1.286974 8.365995 0.000000 0.000000 0.000000 5.839819 -15.707383 5.730209 0.000000 0.000000 0.000000 2.821838 6.980067 2.571097 4.783833 8.738768 1.825798 0.000000 0.000000 0.000000 4.746135 8.726734 1.978032 -1.550072 -0.814358 -0.211336 0.000000 0.000000 0.000000 4.746135 8.726734 1.978032 0.628080 -1.080918 -14.431546 -22.153964 -29.866962 -73.234962 0.000012 -69.882117 0.000015 0.000000 0.000000 0.000000 4.746135 8.726734 1.978032 0.060719 12.557641 17.306316 -38.523817 59.096736 68.571438 0.000024 49.495051 -0.000012 0.000000 0.000000 0.000000 
